<svg width="12" height="11" viewBox="0 0 12 11" fill="none" xmlns="http://www.w3.org/2000/svg">
<path d="M8.69226 10.0214C8.33016 10.0063 7.97222 9.94708 7.62876 9.84541C6.73729 9.57888 5.77021 9.57888 4.87874 9.84541C3.41643 10.3039 2.20936 9.85357 2.26431 8.61073C2.26697 6.77386 4.24241 4.97078 6.25508 4.97078C8.26775 4.97078 10.2432 6.77386 10.2432 8.61073C10.2432 9.2541 9.97421 10.0214 8.69226 10.0214ZM10.6172 2.64517C10.0128 2.58184 9.46507 3.08341 9.37024 3.98941C9.17836 6.12932 11.2788 6.40788 11.5597 4.21824C11.6541 3.31263 11.2216 2.70849 10.6172 2.64517ZM0.950449 4.21824C1.23183 6.40827 3.33046 6.12777 3.13992 3.98941C3.04509 3.08341 2.49739 2.58184 1.89297 2.64517C1.28855 2.70849 0.856063 3.31263 0.950449 4.21824ZM3.58615 2.27569C3.86753 4.4665 5.96749 4.18522 5.77518 2.04686C5.67902 1.14086 5.13309 0.639292 4.5269 0.702619C3.92071 0.765946 3.49132 1.37008 3.58615 2.27569ZM7.95845 0.702619C7.35402 0.639292 6.80632 1.14086 6.7115 2.04686C6.51962 4.18677 8.62003 4.46533 8.90097 2.27569C8.99535 1.37008 8.56287 0.765946 7.95845 0.702619Z" fill="#D15434"/>
</svg>
