<svg width="14" height="15" viewBox="0 0 14 15" fill="none" xmlns="http://www.w3.org/2000/svg">
<path d="M10.2083 15C9.73161 14.9757 9.26043 14.8804 8.8083 14.7169C7.63478 14.2881 6.36172 14.2881 5.1882 14.7169C3.26324 15.4544 1.67426 14.73 1.7466 12.7306C1.7501 9.77558 4.35055 6.87493 7 6.87493C9.64945 6.87493 12.2499 9.77558 12.2499 12.7306C12.2499 13.7656 11.8958 15 10.2083 15ZM12.7422 3.13364C11.9466 3.03176 11.2256 3.83865 11.1008 5.29616C10.8482 8.73869 13.6131 9.18682 13.983 5.66429C14.1072 4.2074 13.5379 3.23552 12.7422 3.13364ZM0.0170455 5.66429C0.387455 9.18745 3.15007 8.73619 2.89924 5.29616C2.77441 3.83865 2.05342 3.03176 1.25777 3.13364C0.462121 3.23552 -0.107202 4.2074 0.0170455 5.66429ZM3.48665 2.53926C3.85706 6.06367 6.62142 5.61116 6.36826 2.17113C6.24168 0.713618 5.52303 -0.0932644 4.72504 0.00861158C3.92706 0.110488 3.36182 1.08237 3.48665 2.53926ZM9.24229 0.00861158C8.44664 -0.0932644 7.72565 0.713618 7.60082 2.17113C7.34824 5.61366 10.1132 6.06179 10.483 2.53926C10.6073 1.08237 10.0379 0.110488 9.24229 0.00861158Z" fill="#D15434"/>
</svg>
