<svg width="88" height="88" viewBox="0 0 88 88" fill="none" xmlns="http://www.w3.org/2000/svg">
<circle cx="44" cy="44" r="43.5" stroke="white"/>
<path d="M52.8957 61.1799C51.4997 61.1246 50.1198 60.9074 48.7957 60.5347C45.359 59.5577 41.6308 59.5577 38.194 60.5347C32.5566 62.2153 27.9032 60.5646 28.115 56.0087C28.1253 49.2752 35.7409 42.6656 43.5 42.6656C51.2591 42.6656 58.8747 49.2752 58.8747 56.0087C58.8747 58.3671 57.8378 61.1799 52.8957 61.1799ZM60.3165 34.1405C57.9864 33.9084 55.8749 35.747 55.5094 39.0681C54.7697 46.9125 62.867 47.9336 63.9501 39.907C64.3139 36.5872 62.6466 34.3726 60.3165 34.1405ZM23.0499 39.907C24.1347 47.9351 32.2252 46.9068 31.4906 39.0681C31.1251 35.747 29.0136 33.9084 26.6835 34.1405C24.3534 34.3726 22.6861 36.5872 23.0499 39.907ZM33.2109 32.7861C34.2957 40.817 42.3913 39.7859 41.6499 31.9473C41.2792 28.6261 39.1746 26.7875 36.8376 27.0196C34.5007 27.2518 32.8453 29.4664 33.2109 32.7861ZM50.0667 27.0196C47.7366 26.7875 45.6251 28.6261 45.2596 31.9473C44.5199 39.7916 52.6172 40.8128 53.7003 32.7861C54.0641 29.4664 52.3968 27.2518 50.0667 27.0196Z" fill="white"/>
</svg>
